<?xml version="1.0" encoding="UTF-8"?><svg id="Above_ground_gas_pipeline" xmlns="http://www.w3.org/2000/svg" viewBox="0 0 1531.95 1080.26"><defs><style>.cls-1{stroke:blue;stroke-width:1.42px;}.cls-1,.cls-2{fill:none;stroke-linecap:round;stroke-linejoin:round;}.cls-2{stroke:#000;stroke-width:.43px;}</style></defs><g id="LINE"><line class="cls-2" x1="330.38" y1="452.65" x2="330.38" y2="452.17"/></g><g id="LINE-2"><line class="cls-2" x1="329.46" y1="422.2" x2="329.46" y2="422.61"/></g><g id="LINE-3"><line class="cls-2" x1="329.99" y1="437.17" x2="329.99" y2="437.67"/></g><g id="LINE-4"><line class="cls-1" x1="1059.82" y1="363.49" x2="1059.82" y2="408.95"/></g><g id="LINE-5"><line class="cls-1" x1="1059.82" y1="408.95" x2="641.64" y2="408.95"/></g><g id="LINE-6"><line class="cls-1" x1="641.64" y1="408.95" x2="641.64" y2="419.13"/></g><g id="LINE-7"><line class="cls-1" x1="946.08" y1="408.95" x2="946.08" y2="325.67"/></g><g id="LINE-8"><line class="cls-1" x1="946.08" y1="325.67" x2="953.79" y2="325.67"/></g><g id="LINE-9"><line class="cls-1" x1="946.08" y1="385.59" x2="953.79" y2="385.59"/></g><g id="LINE-10"><line class="cls-1" x1="953.79" y1="385.59" x2="953.79" y2="392.13"/></g><g id="LINE-11"><line class="cls-1" x1="1024.76" y1="408.95" x2="1024.76" y2="462.04"/></g><g id="LINE-12"><line class="cls-1" x1="1058.36" y1="462.34" x2="1058.36" y2="438.33"/></g><g id="LINE-13"><line class="cls-1" x1="945.06" y1="408.95" x2="945.06" y2="459.86"/></g><g id="LINE-14"><line class="cls-1" x1="945.06" y1="459.86" x2="992.34" y2="459.86"/></g><g id="LINE-15"><line class="cls-1" x1="980.66" y1="459.86" x2="980.66" y2="481.67"/></g><g id="LINE-16"><line class="cls-1" x1="817.61" y1="672.83" x2="817.61" y2="408.95"/></g><g id="LINE-17"><line class="cls-1" x1="817.61" y1="607.02" x2="850.71" y2="607.02"/></g><g id="LINE-18"><line class="cls-1" x1="850.71" y1="607.02" x2="850.71" y2="596.11"/></g><g id="LINE-19"><line class="cls-1" x1="817.61" y1="607.02" x2="798.94" y2="607.02"/></g><g id="LINE-20"><line class="cls-1" x1="817.61" y1="584.24" x2="788.52" y2="584.24"/></g><g id="LINE-21"><line class="cls-1" x1="788.52" y1="584.24" x2="788.52" y2="569.47"/></g><g id="LINE-22"><line class="cls-1" x1="733.55" y1="408.95" x2="733.55" y2="350.76"/></g><g id="LINE-23"><line class="cls-1" x1="733.55" y1="350.76" x2="719.01" y2="350.76"/></g><g id="LINE-24"><line class="cls-1" x1="719.01" y1="350.76" x2="719.01" y2="356.85"/></g><g id="LINE-25"><line class="cls-1" x1="719.01" y1="350.76" x2="719.01" y2="320.36"/></g><g id="LINE-26"><line class="cls-1" x1="674.02" y1="312.19" x2="674.02" y2="503.86"/></g><g id="LINE-27"><line class="cls-1" x1="678.02" y1="674.01" x2="702.08" y2="674.01"/></g><g id="LINE-28"><line class="cls-1" x1="702.08" y1="674.01" x2="702.08" y2="650.52"/></g><g id="LINE-29"><line class="cls-1" x1="674.02" y1="411.74" x2="679.76" y2="411.74"/></g><g id="LINE-30"><line class="cls-1" x1="679.76" y1="411.74" x2="679.76" y2="456.83"/></g><g id="LINE-31"><line class="cls-1" x1="678.02" y1="503.86" x2="668.2" y2="503.86"/></g><g id="LINE-32"><line class="cls-1" x1="668.2" y1="503.86" x2="668.2" y2="590.77"/></g><g id="LINE-33"><line class="cls-1" x1="668.2" y1="590.77" x2="664.2" y2="590.77"/></g><g id="LINE-34"><line class="cls-1" x1="668.2" y1="582.4" x2="664.2" y2="582.4"/></g><g id="LINE-35"><line class="cls-1" x1="678.02" y1="503.86" x2="678.02" y2="674.01"/></g><g id="LINE-36"><line class="cls-1" x1="678.02" y1="660.66" x2="680.2" y2="660.66"/></g><g id="LINE-37"><line class="cls-1" x1="674.02" y1="312.19" x2="606.38" y2="312.19"/></g><g id="LINE-38"><line class="cls-1" x1="606.38" y1="312.19" x2="606.38" y2="315.21"/></g><g id="LINE-39"><line class="cls-1" x1="606.38" y1="315.21" x2="172.2" y2="315.21"/></g><g id="LINE-40"><line class="cls-1" x1="526.17" y1="315.21" x2="526.17" y2="547.94"/></g><g id="LINE-41"><line class="cls-1" x1="526.17" y1="343.94" x2="534.17" y2="343.94"/></g><g id="LINE-42"><line class="cls-1" x1="526.17" y1="427.94" x2="533.45" y2="427.94"/></g><g id="LINE-43"><line class="cls-1" x1="452.95" y1="315.21" x2="452.95" y2="373.03"/></g><g id="LINE-44"><line class="cls-1" x1="452.95" y1="373.03" x2="447.49" y2="373.03"/></g><g id="LINE-45"><line class="cls-1" x1="452.95" y1="373.03" x2="452.95" y2="479.58"/></g><g id="LINE-46"><line class="cls-1" x1="452.95" y1="479.58" x2="447.49" y2="479.58"/></g><g id="LINE-47"><line class="cls-1" x1="452.95" y1="479.58" x2="452.95" y2="526.12"/></g><g id="LINE-48"><line class="cls-1" x1="367.2" y1="315.21" x2="367.2" y2="416.96"/></g><g id="LINE-49"><line class="cls-1" x1="367.2" y1="416.96" x2="379.39" y2="416.96"/></g><g id="LINE-50"><line class="cls-1" x1="319.84" y1="315.21" x2="319.84" y2="398.85"/></g><g id="LINE-51"><line class="cls-1" x1="172.2" y1="315.21" x2="172.2" y2="362.53"/></g><g id="LINE-52"><line class="cls-1" x1="172.2" y1="362.53" x2="295.84" y2="362.53"/></g><g id="LINE-53"><line class="cls-1" x1="241.24" y1="315.21" x2="241.24" y2="485.09"/></g><g id="LINE-54"><line class="cls-1" x1="241.24" y1="485.09" x2="171.3" y2="485.09"/></g><g id="LINE-55"><line class="cls-1" x1="241.24" y1="401.03" x2="176.82" y2="401.03"/></g><g id="LINE-56"><line class="cls-1" x1="186.22" y1="485.09" x2="186.22" y2="427.77"/></g><g id="LINE-57"><line class="cls-1" x1="241.24" y1="485.09" x2="329.46" y2="485.09"/></g><g id="LINE-58"><line class="cls-1" x1="329.46" y1="485.09" x2="329.46" y2="417.3"/></g><g id="LINE-59"><line class="cls-1" x1="295.84" y1="398.85" x2="295.84" y2="328.98"/></g><g id="LINE-60"><line class="cls-1" x1="1274.98" y1="313.57" x2="1275.27" y2="317.19"/></g><g id="LINE-61"><line class="cls-1" x1="1275.27" y1="317.19" x2="1357.52" y2="310.3"/></g><g id="LINE-62"><line class="cls-1" x1="1357.52" y1="310.3" x2="1369.55" y2="436.64"/></g><g id="LINE-63"><line class="cls-1" x1="1278.11" y1="316.95" x2="1291.2" y2="454.51"/></g><g id="LINE-64"><line class="cls-1" x1="1335.36" y1="312.16" x2="1345.69" y2="420.76"/></g><g id="LINE-65"><line class="cls-1" x1="1300.63" y1="315.07" x2="1312.59" y2="440.68"/></g><g id="LINE-66"><line class="cls-1" x1="1242.36" y1="447.36" x2="1345.53" y2="437.55"/></g><g id="LINE-67"><line class="cls-1" x1="1315.48" y1="440.41" x2="1318.03" y2="467.19"/></g><g id="LINE-68"><line class="cls-1" x1="1317.58" y1="462.49" x2="1332.79" y2="461.04"/></g><g id="LINE-69"><line class="cls-1" x1="1332.79" y1="461.04" x2="1333.69" y2="470.48"/></g><g id="LINE-70"><line class="cls-1" x1="1262.27" y1="445.47" x2="1266.42" y2="495"/></g><g id="LINE-71"><line class="cls-1" x1="1266.42" y1="495" x2="1254.11" y2="496.17"/></g><g id="LINE-72"><line class="cls-1" x1="1279.28" y1="329.26" x2="1233.96" y2="332.81"/></g><g id="LINE-73"><line class="cls-1" x1="1233.96" y1="332.81" x2="1237.74" y2="381.03"/></g></svg>